<svg width="1366" height="544" viewBox="0 0 1366 544" fill="none" xmlns="http://www.w3.org/2000/svg">
<rect width="1366" height="544" fill="#1EB2FF"/>
<g clip-path="url(#clip0_185_2481)">
<g opacity="0.3">
<path d="M1336.66 875.736C1235.46 1184.79 965.587 1417.59 705.024 1428.65C327.557 1444.37 -38.2787 974.679 119.339 535.838C303.129 24.8276 571.253 -138.137 924.292 41.1241C1214.52 188.374 1501.83 372.874 1336.66 875.736Z" stroke="white" stroke-width="0.75" stroke-miterlimit="10"/>
<path d="M111.196 537.584C284.517 0.964907 593.354 -133.481 944.067 37.6319C1244.76 184.3 1523.35 383.35 1341.89 881.556C1231.38 1186.53 949.883 1427.49 680.596 1430.4C307.2 1433.89 -28.3911 968.277 111.196 537.584Z" stroke="white" stroke-width="0.75" stroke-miterlimit="10"/>
<path d="M102.472 539.33C265.324 -22.8978 614.874 -128.825 963.26 34.1398C1274.42 180.226 1544.29 393.826 1347.13 886.794C1227.31 1187.7 934.18 1437.38 655.587 1431.56C287.425 1423.41 -19.6671 961.292 102.472 539.33Z" stroke="white" stroke-width="0.75" stroke-miterlimit="10"/>
<path d="M93.7478 541.077C244.967 -47.3425 636.975 -124.751 982.454 31.2298C1305.25 176.734 1565.81 404.885 1351.78 892.615C1222.66 1189.44 917.894 1447.86 629.996 1432.73C267.65 1414.1 -12.6875 954.309 93.7478 541.077Z" stroke="white" stroke-width="0.75" stroke-miterlimit="10"/>
<path d="M85.0236 542.823C223.448 -72.3692 659.077 -120.677 1001.07 27.7377C1334.91 172.078 1586.75 415.361 1356.43 898.435C1218.01 1191.77 901.61 1458.92 604.986 1434.47C247.294 1404.79 -5.70817 946.742 85.0236 542.823Z" stroke="white" stroke-width="0.75" stroke-miterlimit="10"/>
<path d="M76.2993 544.569C201.346 -97.978 681.178 -116.603 1020.26 24.2456C1365.16 167.422 1607.69 425.255 1361.08 903.673C1212.77 1192.94 885.906 1469.39 579.395 1435.64C227.519 1396.64 -0.473696 938.594 76.2993 544.569Z" stroke="white" stroke-width="0.75" stroke-miterlimit="10"/>
<path d="M67.5754 546.315C177.5 -123.587 703.279 -112.528 1039.45 20.7535C1395.98 162.184 1629.21 435.731 1366.32 908.911C1208.7 1194.1 870.203 1481.03 554.968 1436.8C207.744 1388.49 4.76115 930.446 67.5754 546.315Z" stroke="white" stroke-width="0.75" stroke-miterlimit="10"/>
<path d="M58.8513 548.061C152.491 -149.777 725.381 -109.618 1058.65 17.2614C1426.23 157.528 1650.73 446.208 1370.97 914.732C1204.05 1195.85 853.917 1493.26 529.377 1438.55C187.388 1380.93 8.83248 922.298 58.8513 548.061Z" stroke="white" stroke-width="0.75" stroke-miterlimit="10"/>
<path d="M50.1271 549.225C125.737 -175.968 748.064 -106.708 1077.26 13.7693C1456.47 152.289 1671.08 456.684 1375.63 919.97C1199.4 1197.59 837.632 1504.9 503.786 1439.71C167.613 1373.36 12.3222 914.149 50.1271 549.225Z" stroke="white" stroke-width="0.75" stroke-miterlimit="10"/>
<path d="M41.4023 550.971C97.8188 -202.159 770.164 -103.216 1096.45 10.2772C1487.29 146.469 1692.6 467.16 1380.28 925.208C1194.74 1198.76 821.346 1517.12 478.776 1440.87C147.256 1366.38 15.2296 906.001 41.4023 550.971Z" stroke="white" stroke-width="0.75" stroke-miterlimit="10"/>
<path d="M32.6784 552.717C68.1569 -227.768 792.848 -100.306 1116.23 6.78505C1518.7 140.649 1714.71 477.637 1386.09 931.028C1191.25 1200.5 805.643 1530.51 454.348 1442.62C126.9 1359.97 17.5565 897.853 32.6784 552.717Z" stroke="white" stroke-width="0.75" stroke-miterlimit="10"/>
<path d="M1390.75 936.266C1186.02 1201.67 788.776 1543.89 429.339 1443.2C105.962 1353.57 19.3013 889.705 24.5358 554.463C36.7497 -253.377 815.531 -97.978 1135.42 3.29296C1549.53 134.829 1735.64 488.113 1390.75 936.266Z" stroke="white" stroke-width="0.75" stroke-miterlimit="10"/>
</g>
<g opacity="0.3">
<path d="M738.866 1218.42C484.313 1252.87 214.52 1238.18 103.894 1092.46C-56.4017 880.658 198.716 309.634 557.687 226.042C975.923 128.894 1041.96 429.938 1102.35 699.354C1163.87 973.852 1070.18 1173.8 738.866 1218.42Z" stroke="#82FFF7" stroke-width="0.75" stroke-miterlimit="10"/>
<path d="M553.736 220.394C982.696 110.255 1054.94 442.929 1111.95 706.131C1177.98 1013.95 1080.9 1187.92 734.915 1226.89C479.797 1255.69 187.992 1235.36 79.6234 1081.17C-71.0767 867.103 206.618 309.069 553.736 220.394Z" stroke="#82FFF7" stroke-width="0.75" stroke-miterlimit="10"/>
<path d="M549.785 214.745C990.033 91.6165 1067.36 455.355 1120.98 712.909C1191.53 1052.93 1091.06 1201.47 730.399 1234.23C474.717 1257.39 160.335 1231.97 54.2241 1069.31C-85.7521 854.112 215.084 308.504 549.785 214.745Z" stroke="#82FFF7" stroke-width="0.75" stroke-miterlimit="10"/>
<path d="M546.399 209.662C997.371 72.9778 1080.34 468.91 1130.57 720.252C1205.64 1093.59 1101.79 1216.72 725.885 1242.7C469.638 1260.78 133.243 1229.71 29.3897 1058.01C-100.991 841.121 222.986 307.374 546.399 209.662Z" stroke="#82FFF7" stroke-width="0.75" stroke-miterlimit="10"/>
<path d="M542.448 204.014C1004.71 53.2093 1092.19 481.901 1140.17 727.594C1219.19 1133.69 1112.51 1231.41 721.933 1251.17C465.687 1264.16 105.587 1227.45 5.11983 1046.71C-116.795 828.695 230.323 305.68 542.448 204.014Z" stroke="#82FFF7" stroke-width="0.75" stroke-miterlimit="10"/>
<path d="M539.062 198.366C1012.05 32.8761 1105.17 494.892 1149.76 734.372C1232.17 1173.23 1123.24 1246.09 717.983 1258.52C461.172 1266.42 78.4948 1224.63 -19.7143 1034.85C-132.598 816.269 238.226 303.986 539.062 198.366Z" stroke="#82FFF7" stroke-width="0.75" stroke-miterlimit="10"/>
<path d="M535.111 193.283C1018.82 12.5429 1116.46 508.447 1159.36 741.714C1245.15 1213.33 1133.96 1261.91 713.468 1266.99C456.092 1270.38 50.2737 1222.37 -44.5489 1023.56C-148.967 804.408 246.128 301.162 535.111 193.283Z" stroke="#82FFF7" stroke-width="0.75" stroke-miterlimit="10"/>
<path d="M531.159 187.634C1025.03 -9.48471 1128.32 521.438 1168.39 748.492C1257.57 1253.43 1144.12 1277.16 708.952 1274.9C451.576 1273.77 21.4879 1220.11 -69.9482 1012.26C-165.9 792.547 253.465 298.337 531.159 187.634Z" stroke="#82FFF7" stroke-width="0.75" stroke-miterlimit="10"/>
<path d="M527.773 181.986C1031.8 -31.5124 1140.73 534.429 1178.55 755.835C1270.55 1293.54 1155.41 1292.97 705.566 1283.37C447.626 1277.72 -6.16804 1218.98 -93.6532 1000.96C-182.832 780.686 260.803 295.513 527.773 181.986Z" stroke="#82FFF7" stroke-width="0.75" stroke-miterlimit="10"/>
<path d="M523.822 176.903C1037.44 -54.1048 1152.02 547.419 1187.58 763.177C1282.4 1334.2 1165.57 1309.35 700.486 1291.28C441.981 1281.11 -35.5183 1216.72 -119.053 989.667C-199.765 768.825 267.575 291.56 523.822 176.903Z" stroke="#82FFF7" stroke-width="0.75" stroke-miterlimit="10"/>
<path d="M519.871 171.255C1042.52 -77.8268 1163.31 560.41 1197.18 769.955C1294.26 1373.74 1176.29 1325.73 696.535 1299.18C437.466 1285.06 -64.868 1215.03 -143.887 977.805C-217.262 756.964 274.913 288.171 519.871 171.255Z" stroke="#82FFF7" stroke-width="0.75" stroke-miterlimit="10"/>
<path d="M692.584 1307.09C433.515 1289.02 -94.218 1212.77 -168.157 965.945C-234.759 745.103 281.121 284.217 516.485 165.607C1048.17 -102.114 1175.16 573.401 1206.77 776.733C1305.54 1413.84 1187.02 1342.11 692.584 1307.09Z" stroke="#82FFF7" stroke-width="0.75" stroke-miterlimit="10"/>
</g>
</g>
<defs>
<clipPath id="clip0_185_2481">
<rect width="1366" height="544" fill="white"/>
</clipPath>
</defs>
</svg>
