<svg width="100" height="46" viewBox="0 0 100 46" fill="none" xmlns="http://www.w3.org/2000/svg">
<g clip-path="url(#clip0_104_2962)">
<path fill-rule="evenodd" clip-rule="evenodd" d="M59.0929 1.93203L48.5378 25.889C48.3748 26.6469 48.4396 27.0651 48.5378 27.4348L53.6926 26.2286C54.3798 21.9929 59.7438 19.073 64.6513 17.8707L66.1876 21.7328L70.7456 21.0894L69.1258 17.3428C72.7217 17.0284 77.7254 16.976 84.6365 22.3344C91.5476 27.6929 93.1822 39.7306 92.8435 38.4225C92.5048 37.1144 93.0663 28.1898 87.0289 21.5562C81.6758 16.0735 76.4492 13.8096 67.5757 14.2026L62.09 0.901476L59.0929 1.93203ZM23.3888 1.93203L18.8288 24.8594L22.8685 26.7914L26.3869 11.0779L33.0329 27.3077L35.5029 25.2456L40.0638 11.4661L43.2641 27.3426L47.6758 25.2708L43.0619 -1.52588e-05L38.7621 2.06109L33.4197 17.1312L27.2989 0.515264L23.3898 1.93203H23.3888ZM0 5.40893L1.89761 0.965522H19.6731L17.7745 5.40893H12.1789V25.5028H7.23016V5.40893H0ZM63.6637 14.7538C63.7893 14.4772 57.2827 16.8459 57.2729 17.435L60.9051 8.93629L63.6598 14.7538H63.6637Z" fill="#279DD8"/>
<path fill-rule="evenodd" clip-rule="evenodd" d="M70.3371 20.7896C77.1206 20.7896 82.621 26.3373 82.621 33.1776C82.621 40.0179 77.1236 45.5656 70.3371 45.5656C63.5507 45.5656 58.0522 40.0169 58.0522 33.1776C58.0522 26.3383 63.5497 20.7896 70.3371 20.7896Z" fill="#9D9FA2"/>
<path fill-rule="evenodd" clip-rule="evenodd" d="M57.9895 32.4372C59.5798 32.1461 60.9768 30.7671 58.7179 30.3702C58.2958 30.2965 58.6629 29.4814 58.8593 29.46C59.9391 29.3387 63.165 31.5687 63.165 32.9321C63.165 37.6355 64.8093 36.4158 66.4507 34.179C68.3267 31.623 69.2731 34.6953 70.3608 36.8398C70.6111 37.3347 72.8474 38.047 72.8474 37.2222C72.8474 36.2314 72.5529 35.2717 71.8853 34.6118C71.8853 34.6118 74.745 33.9112 75.1838 33.0136C75.9967 31.3532 74.4446 25.9948 76.5189 30.2082C76.9479 31.0815 77.4672 30.9127 77.6469 30.3635C77.7559 30.0335 77.5703 29.4319 77.6037 29.2184C78.0258 26.5556 80.6322 29.4348 77.8413 25.4018C76.4296 23.364 78.8563 24.02 79.1901 24.6809C79.6908 25.6706 78.071 22.7401 74.0981 21.3573C68.7871 19.5029 62.4729 22.1035 59.8636 26.8817C57.8432 30.5769 58.0435 31.8054 57.9905 32.4372H57.9895ZM68.743 38.5118C69.006 38.6156 69.2171 38.8243 69.4301 39.0843C69.6432 39.3444 70.0623 39.7636 70.2724 39.9693C70.6415 40.3342 70.9596 40.9582 70.9596 41.4793C70.9596 41.5831 71.0126 41.947 70.8536 41.947C70.8006 41.947 70.6955 41.8946 70.6435 41.8946C70.5375 41.8946 70.4855 41.8946 70.4334 41.8432C70.3814 41.7917 70.2224 41.6869 70.2224 41.5307L70.1173 41.2182C70.0113 41.1134 69.9593 40.8534 69.9063 40.6981C69.8012 40.3856 69.4851 39.9169 69.3801 39.6045C69.3271 39.3444 68.6929 38.7195 68.7479 38.5118H68.743ZM69.6913 36.638V37.6792C69.6913 37.7316 69.7973 38.0955 69.7973 38.0955L69.9023 38.2517C69.9838 38.3664 70.0545 38.4882 70.1134 38.6156C70.1654 38.7204 70.4805 39.654 70.7456 39.654C70.9037 39.654 70.8506 39.0814 70.8506 38.9252C70.8373 38.6697 70.7655 38.4205 70.6406 38.1964C70.6406 38.144 70.5345 37.884 70.5345 37.8316C70.4815 37.7277 70.4295 37.4667 70.3765 37.4153C70.2714 37.3105 69.9553 36.6341 69.6893 36.6341L69.6913 36.638ZM72.1141 40.0217C72.3242 39.9169 72.5882 39.9169 72.8513 39.9169L73.2725 39.8645C73.3606 39.7701 73.4704 39.6979 73.5925 39.654C73.7474 39.5938 73.9053 39.5417 74.0657 39.4977C74.0657 39.4977 74.8559 39.1853 74.961 39.1853C75.1721 39.1853 75.4882 39.2367 75.4882 39.4977C75.4882 39.654 75.4882 40.1217 75.4351 40.177C75.3821 40.2323 75.3821 40.4371 75.3821 40.4371L75.2241 40.7495C75.2241 40.8019 75.066 40.9582 75.066 40.9582C74.908 41.0096 74.7499 41.3221 74.5929 41.3221C74.3818 41.3745 74.1717 41.5307 73.9606 41.5307C73.6445 41.5307 73.2234 41.5821 72.8553 41.5821C72.4341 41.5821 71.8549 41.062 71.7489 40.6981C71.7489 40.5933 71.6959 40.3332 71.7489 40.2818C71.8019 40.2304 72.17 40.178 72.118 40.0217H72.1141ZM73.2195 42.7281C73.0614 42.5719 72.9034 42.5195 72.7983 42.4157L72.6923 42.3119C72.6182 42.3195 72.5438 42.3009 72.4822 42.2594C72.4614 42.2398 72.4364 42.2249 72.4091 42.2158C72.3818 42.2068 72.3528 42.2038 72.3242 42.207C72.1141 42.207 72.3772 42.1546 72.0611 42.1546H71.745L71.692 42.2594L71.6399 42.3119V42.4157L71.745 42.5195C71.7885 42.5664 71.8427 42.6023 71.903 42.6243L72.0081 42.7291L72.0611 42.7805H72.1141L72.1671 42.8853H72.2721L72.3251 42.9378L72.3782 42.9902V43.0416H72.4312L72.5362 43.094V43.1474H72.5882C72.6413 43.1998 72.6943 43.3036 72.7463 43.3036H72.9053C72.9253 43.2562 72.9634 43.2185 73.0114 43.1988L73.0644 43.094V42.9378C73.0601 42.8899 73.0738 42.8423 73.103 42.8039C73.1322 42.7656 73.1748 42.7393 73.2224 42.7301L73.2195 42.7281ZM79.6986 28.7778C79.6466 29.3504 79.0674 29.9753 78.6463 30.183C78.5402 30.2354 78.3832 30.5993 78.3832 30.6517C78.3832 30.9117 78.4362 30.9641 78.6463 31.0155C78.7523 31.0155 78.5933 31.1194 78.8043 31.1194H79.8047C80.1738 31.1194 80.1208 30.0782 80.0678 29.8181C80.0678 29.7133 80.0147 29.5056 80.0147 29.4018C80.0147 29.3494 79.9097 28.9855 79.9097 28.9331C79.8567 28.7254 79.7516 28.673 79.6986 28.7769V28.7778Z" fill="#F6F5C2"/>
<path fill-rule="evenodd" clip-rule="evenodd" d="M39.6378 32.7496V38.7078H38.4401V37.8616C37.9689 38.5156 37.5094 38.8446 36.621 38.8446C35.6325 38.8446 34.5781 38.4302 34.3494 37.3968C34.2991 37.0716 34.279 36.7426 34.2895 36.4138V32.7496H35.5716V35.9664C35.5716 36.3759 35.6128 36.6845 35.6972 36.8893C35.7865 37.0968 35.9448 37.268 36.1459 37.3745C36.3576 37.5009 36.6015 37.5649 36.8488 37.5588C37.3121 37.5588 37.4898 37.421 37.8305 37.1484C38.1711 36.8757 38.3331 36.3575 38.3331 35.5957V32.7496H39.6397H39.6378ZM7.47853 37.0882L8.86272 37.1231C8.96088 37.6345 9.87484 37.8946 10.3186 37.8946C10.7623 37.8946 11.0794 37.8092 11.3003 37.6394C11.5211 37.4696 11.6311 37.2716 11.6311 37.0445C11.6338 36.9075 11.5836 36.7746 11.4907 36.6729C11.3545 36.5446 11.1877 36.4525 11.0057 36.4051C10.8487 36.3546 10.4884 36.2634 9.92589 36.1353C9.20533 35.9664 8.7027 35.7646 8.40819 35.5239C8.21627 35.3775 8.06095 35.1894 7.95423 34.9742C7.8475 34.759 7.79223 34.5225 7.79267 34.2828C7.79332 33.9662 7.89425 33.6577 8.08129 33.4007C8.28972 33.1152 8.57957 32.8976 8.91376 32.7758C9.33409 32.6235 9.77974 32.5511 10.2273 32.5623C11.0663 32.5623 11.6972 32.7318 12.12 33.0708C12.3263 33.234 12.4932 33.4406 12.6086 33.6756C12.7239 33.9106 12.7847 34.1681 12.7865 34.4293L11.4397 34.4837C11.3827 34.1664 11.2571 33.9383 11.0686 33.7996C10.8801 33.6608 10.5944 33.5919 10.2155 33.5919C9.83655 33.5919 9.51652 33.6656 9.29564 33.8141C9.22948 33.854 9.17496 33.9102 9.13744 33.9773C9.09991 34.0443 9.08068 34.1198 9.08163 34.1964C9.082 34.2698 9.09999 34.342 9.13412 34.4071C9.16826 34.4723 9.21756 34.5284 9.27797 34.571C9.44748 34.7004 9.86011 34.8379 10.5159 34.9834C11.1717 35.129 11.6566 35.2768 11.9707 35.4269C12.2696 35.5665 12.5247 35.7835 12.709 36.0547C12.8915 36.3547 12.9834 36.6999 12.9741 37.0498C12.9647 37.3996 12.8543 37.7396 12.656 38.0295C12.4343 38.345 12.1196 38.5852 11.7548 38.7175C11.2886 38.8801 10.7961 38.9564 10.3019 38.9426C9.13759 38.9426 7.64149 38.4041 7.47559 37.0853L7.47853 37.0882ZM16.9234 35.7898C16.9234 35.16 17.0216 34.6331 17.2277 34.2071C17.3809 33.89 17.5915 33.6032 17.8491 33.3609C18.0974 33.1223 18.3905 32.9341 18.712 32.8069C19.1719 32.6364 19.6602 32.5535 20.1512 32.5623C21.1329 32.5623 21.9182 32.8444 22.5072 33.4085C23.0963 33.9726 23.3908 34.7564 23.3908 35.7597C23.3908 36.7567 23.0963 37.5362 22.5072 38.0984C21.9182 38.6606 21.1358 38.9416 20.16 38.9416C19.1672 38.9416 18.3779 38.6619 17.7922 38.1023C17.2064 37.5427 16.9139 36.7719 16.9145 35.7898H16.9234ZM18.3105 35.7481C18.3105 36.4458 18.4862 36.9766 18.8338 37.3366C19.1867 37.6813 19.6629 37.8746 20.159 37.8746C20.6552 37.8746 21.1313 37.6813 21.4843 37.3366C21.8273 36.9795 21.9991 36.4432 21.9997 35.7277C22.0004 35.0122 21.8331 34.4846 21.4981 34.145C21.1633 33.7966 20.7127 33.6229 20.162 33.6229C19.6113 33.6229 19.1577 33.7996 18.818 34.1518C18.4784 34.5041 18.3085 35.0329 18.3085 35.7442L18.3105 35.7481ZM27.7151 38.8368V31.0796H29.062V38.8262L27.7151 38.8368ZM46.8129 32.8136V33.8888H45.6938V37.1115C45.6938 38.0207 45.9343 37.7597 46.81 37.8005V38.9387H45.6614C45.4487 38.9419 45.2373 38.9057 45.038 38.832C44.8787 38.7784 44.7376 38.6819 44.6306 38.5535C44.535 38.4155 44.4731 38.2573 44.45 38.0916C44.4161 37.8151 44.4026 37.5365 44.4098 37.258V33.8888H43.6656V32.8136H44.4098V31.3697H45.6928V32.8156H46.812L46.8129 32.8136ZM51.6075 38.8368V33.1669H52.9544V38.8368H51.6075ZM94.5742 36.8301L95.8847 36.7107C95.9626 37.1189 96.1226 37.4181 96.3648 37.6083C96.6063 37.8024 96.9302 37.8946 97.3406 37.8946C97.7745 37.8946 98.1024 37.8102 98.3223 37.6394C98.4215 37.5735 98.5033 37.4851 98.561 37.3817C98.6188 37.2782 98.6507 37.1626 98.6541 37.0445C98.6575 36.9074 98.6072 36.7742 98.5137 36.6729C98.3784 36.5438 98.2117 36.4516 98.0297 36.4051C97.8727 36.3536 97.5124 36.2643 96.9499 36.1353C96.23 35.9703 95.7234 35.7669 95.4302 35.5249C95.2382 35.3786 95.0828 35.1905 94.976 34.9753C94.8693 34.7601 94.8141 34.5235 94.8147 34.2838C94.8156 33.9671 94.9169 33.6586 95.1043 33.4017C95.3131 33.1166 95.6028 32.8991 95.9368 32.7768C96.3569 32.6249 96.8021 32.5525 97.2493 32.5633C98.0886 32.5633 98.7218 32.7331 99.142 33.0718C99.3482 33.235 99.5151 33.4417 99.6304 33.6767C99.7457 33.9117 99.8066 34.1691 99.8085 34.4303L98.4607 34.4846C98.4037 34.1673 98.2791 33.9383 98.0896 33.8005C97.9001 33.6627 97.6154 33.5929 97.2365 33.5929C96.8576 33.5929 96.5366 33.6666 96.3167 33.8151C96.2504 33.8549 96.1959 33.9111 96.1583 33.9782C96.1208 34.0452 96.1016 34.1208 96.1027 34.1974C96.1029 34.2708 96.1208 34.3431 96.1549 34.4082C96.1891 34.4734 96.2385 34.5295 96.299 34.572C96.4685 34.7046 96.8815 34.8421 97.5379 34.9844C98.1943 35.1267 98.6789 35.2745 98.9918 35.4279C99.2903 35.568 99.5453 35.7848 99.73 36.0557C99.9154 36.35 100.008 36.6922 99.9961 37.0387C99.9958 37.3942 99.8843 37.7409 99.677 38.0314C99.4556 38.3472 99.1408 38.5875 98.7758 38.7194C98.31 38.8823 97.8178 38.9587 97.3239 38.9446C96.4803 38.9446 95.8324 38.7647 95.3801 38.405C94.9279 38.0453 94.6583 37.52 94.5712 36.8291L94.5742 36.8301ZM84.3646 38.8446V32.8864H85.5622V33.7345C86.0335 33.0795 86.4929 32.7515 87.3803 32.7515C87.7447 32.7477 88.1064 32.8136 88.4455 32.9456C88.7302 33.0466 88.9814 33.2228 89.1719 33.4551C89.3392 33.6758 89.4551 33.9303 89.5116 34.2003C89.5609 34.5256 89.5809 34.8546 89.5715 35.1833V38.8475H88.4808V35.2183C88.4808 34.8088 88.4396 34.5002 88.3552 34.2954C88.2661 34.0878 88.1078 33.9165 87.9065 33.8102C87.6749 33.6834 87.4134 33.6198 87.1487 33.6259C86.6853 33.6259 86.5076 33.7637 86.167 34.0363C85.8263 34.309 85.6643 34.8272 85.6643 35.589V38.8436H84.3616L84.3646 38.8446ZM51.6075 32.7806V30.9466H52.9544V32.7806H51.6075Z" fill="#231F20"/>
</g>
<defs>
<clipPath id="clip0_104_2962">
<rect width="100" height="46" fill="white"/>
</clipPath>
</defs>
</svg>
